<svg width="24" height="24" viewBox="0 0 24 24" fill="none" xmlns="http://www.w3.org/2000/svg">
<path d="M0 10.2857H10.2857V0H0V10.2857ZM3.42857 3.42857H6.85714V6.85714H3.42857V3.42857ZM13.7143 0V10.2857H24V0H13.7143ZM20.5714 6.85714H17.1429V3.42857H20.5714V6.85714ZM0 24H10.2857V13.7143H0V24ZM3.42857 17.1429H6.85714V20.5714H3.42857V17.1429ZM22.2857 13.7143H24V20.5714H18.8571V18.8571H17.1429V24H13.7143V13.7143H18.8571V15.4286H22.2857V13.7143ZM22.2857 22.2857H24V24H22.2857V22.2857ZM18.8571 22.2857H20.5714V24H18.8571V22.2857Z" fill="#B8B8B8"/>
</svg>
