<svg xmlns="http://www.w3.org/2000/svg" width="23.469" height="23.471" viewBox="0 0 23.469 23.471">
  <path id="icon-menu-01a" d="M23.339,10.208l0,0L13.762.632a2.161,2.161,0,0,0-3.056,0L1.137,10.2l-.01.01a2.16,2.16,0,0,0,1.438,3.681c.022,0,.044,0,.067,0h.381v7.046a2.532,2.532,0,0,0,2.529,2.529H9.288a.688.688,0,0,0,.688-.688V17.259a1.155,1.155,0,0,1,1.154-1.154h2.209a1.155,1.155,0,0,1,1.154,1.154v5.524a.688.688,0,0,0,.688.688h3.746a2.532,2.532,0,0,0,2.529-2.529V13.9h.354a2.161,2.161,0,0,0,1.529-3.688Zm-.974,2.082a.781.781,0,0,1-.555.23H20.768a.688.688,0,0,0-.688.688v7.733A1.155,1.155,0,0,1,18.926,22.1H15.868V17.259a2.532,2.532,0,0,0-2.529-2.529H11.13A2.532,2.532,0,0,0,8.6,17.259V22.1H5.542a1.155,1.155,0,0,1-1.154-1.154V13.208a.688.688,0,0,0-.688-.688H2.645a.785.785,0,0,1-.541-1.34h0L11.679,1.6a.785.785,0,0,1,1.111,0l9.572,9.572,0,0a.787.787,0,0,1,0,1.11Zm0,0" transform="translate(-0.5 0.001)" fill="#b8b8b8"/>
</svg>
