<svg width="26" height="20" viewBox="0 0 26 20" fill="none" xmlns="http://www.w3.org/2000/svg">
<path d="M24.1452 10.7341L16.3215 18.5578C15.6229 19.2563 14.4121 18.7674 14.4121 17.7661V13.2954H8.0786C7.45923 13.2954 6.96093 12.7971 6.96093 12.1777V7.70704C6.96093 7.08766 7.45923 6.58936 8.0786 6.58936H14.4121V2.11866C14.4121 1.12207 15.6183 0.628432 16.3215 1.32698L24.1452 9.1507C24.5783 9.58846 24.5783 10.2963 24.1452 10.7341ZM9.9414 18.3249V16.4622C9.9414 16.1548 9.68992 15.9033 9.38256 15.9033H5.4707C4.64641 15.9033 3.98047 15.2374 3.98047 14.4131V5.47169C3.98047 4.6474 4.64641 3.98146 5.4707 3.98146H9.38256C9.68992 3.98146 9.9414 3.72998 9.9414 3.42262V1.55983C9.9414 1.25247 9.68992 1.00099 9.38256 1.00099H5.4707C3.0025 1.00099 1 3.00349 1 5.47169V14.4131C1 16.8813 3.0025 18.8838 5.4707 18.8838H9.38256C9.68992 18.8838 9.9414 18.6323 9.9414 18.3249Z" stroke="#B8B8B8" stroke-width="2"/>
</svg>
