<svg width="24" height="24" viewBox="0 0 24 24" fill="none" xmlns="http://www.w3.org/2000/svg">
<g clip-path="url(#clip0_638:4)">
<path d="M4.8675 7.33437C4.8675 8.62 4.06603 9.26812 3.5205 9.26812C2.97497 9.26812 2.1735 8.62 2.1735 7.33437C2.1735 6.04875 2.97497 5.40062 3.5205 5.40062C4.06603 5.40062 4.8675 6.04875 4.8675 7.33437ZM21.2965 7.33437C21.2965 8.62 20.495 9.26812 19.9495 9.26812C19.404 9.26812 18.6025 8.62 18.6025 7.33437C18.6025 6.04875 19.404 5.40062 19.9495 5.40062C20.495 5.40062 21.2965 6.04875 21.2965 7.33437ZM20.7324 16.6025C20.4239 15.1016 19.7517 13.7588 18.8068 12.735H21.123C21.6685 12.735 22.47 13.3831 22.47 14.6687V16.1356C22.47 16.3309 22.4061 16.4732 22.3458 16.5486C22.3176 16.5838 22.2976 16.5977 22.288 16.6025H20.7324ZM22.2816 16.6048C22.2816 16.6045 22.2832 16.6038 22.2864 16.6033C22.2833 16.6047 22.2816 16.605 22.2816 16.6048ZM14.8422 6.60094C14.8422 9.1059 13.256 10.735 11.735 10.735C10.214 10.735 8.62775 9.1059 8.62775 6.60094C8.62775 4.09597 10.214 2.46687 11.735 2.46687C13.256 2.46687 14.8422 4.09597 14.8422 6.60094ZM11.735 14.9353C12.7444 14.9353 13.6808 14.6549 14.5126 14.2019H14.5514C16.1347 14.2019 17.776 15.8997 17.776 18.4826V19.8028C17.776 20.685 17.2386 21.0031 17.0157 21.0031H6.45425C6.23143 21.0031 5.694 20.685 5.694 19.8028V18.4826C5.694 15.8997 7.33525 14.2019 8.9186 14.2019H8.9582C9.79078 14.6542 10.7241 14.9353 11.735 14.9353ZM4.66313 12.735C3.71804 13.7589 3.04536 15.1019 2.73518 16.6025H1.18201C1.17243 16.5977 1.15239 16.5838 1.12421 16.5486C1.06388 16.4732 1 16.3309 1 16.1356V14.6687C1 13.3831 1.80147 12.735 2.347 12.735H4.66313ZM1.18838 16.6048C1.18834 16.605 1.1867 16.6047 1.18358 16.6033C1.18686 16.6038 1.18842 16.6045 1.18838 16.6048Z" stroke="#B8B8B8" stroke-width="2"/>
</g>
<defs>
<clipPath id="clip0_638:4">
<rect width="23.47" height="23.47" fill="white"/>
</clipPath>
</defs>
</svg>
