<svg id="icon-menu-03a" xmlns="http://www.w3.org/2000/svg" width="22.295" height="20.965" viewBox="0 0 22.295 20.965">
  <path id="Trazado_17" data-name="Trazado 17" d="M20.424,15.822a6.425,6.425,0,0,0-9.278.231,6.4,6.4,0,1,0-9.113,8.981,2.244,2.244,0,0,0,1.261,3.832,2.246,2.246,0,0,0,2.228,2.391,2.243,2.243,0,0,0,2.8,2.011,2.245,2.245,0,0,0,3.745,1c.685-.681,1.23-1.11,1.264-2.141a2.247,2.247,0,0,0,2.128-2.155,2.246,2.246,0,0,0,2.156-2.156,2.247,2.247,0,0,0,2.158-2.3l.65-.65A6.4,6.4,0,0,0,20.424,15.822ZM3.014,26.075l.611-.611A.81.81,0,0,1,4.77,26.609l-.611.611a.81.81,0,0,1-1.145-1.145Zm1.7,2.944a.8.8,0,0,1,.237-.572l.611-.611A.81.81,0,0,1,6.71,28.981l-.539.539a.849.849,0,0,1-.644.309A.813.813,0,0,1,4.717,29.019Zm2.465,2.656a.813.813,0,0,1,0-1.145l.539-.539a.82.82,0,0,1,1.217-.072.811.811,0,0,1,0,1.145l-.611.611a.81.81,0,0,1-1.145,0Zm4.486.97-.611.611a.81.81,0,0,1-1.145,0,.813.813,0,0,1,0-1.145l.611-.611a.81.81,0,1,1,1.145,1.145Zm6.44-6.494a.813.813,0,0,1-1.145,0L13.782,22.97l-1.011,1.011,3.181,3.181a.81.81,0,1,1-1.145,1.145L11.681,25.18l-.054-.054-1.011,1.011.054.054L13.8,29.318a.81.81,0,0,1-1.145,1.145h0a2.24,2.24,0,0,0-2.126-.555A2.25,2.25,0,0,0,8.37,28.254,2.247,2.247,0,0,0,6.43,26.19,2.244,2.244,0,0,0,3.1,24.083a4.977,4.977,0,1,1,7.031-7.019L8.369,18.831l1.416,1.416A3.241,3.241,0,0,0,13.8,20.7l4.31,4.31a.811.811,0,0,1,0,1.145Zm1.305-2.293-.218.218q-.037-.041-.077-.081l-5.265-5.265-.505.505a1.808,1.808,0,0,1-2.554,0l-.405-.405,2-2a4.968,4.968,0,0,1,7.025,7.025Z" transform="translate(0 -13.955)" fill="#b8b8b8"/>
</svg>
