<svg id="icon-menu-06a" xmlns="http://www.w3.org/2000/svg" width="23.465" height="26.698" viewBox="0 0 23.465 26.698">
  <g id="Grupo_10" data-name="Grupo 10" transform="translate(0)">
    <g id="Grupo_9" data-name="Grupo 9" transform="translate(0)">
      <path id="Trazado_18" data-name="Trazado 18" d="M52.118,3.129h-.782V2.346A2.349,2.349,0,0,0,48.99,0H33.346A2.349,2.349,0,0,0,31,2.346V21.223a2.349,2.349,0,0,0,2.346,2.346h.782v.782A2.349,2.349,0,0,0,36.475,26.7H52.118a2.349,2.349,0,0,0,2.346-2.346V5.475A2.349,2.349,0,0,0,52.118,3.129Zm-17.3,2.9a2.331,2.331,0,0,0-.687,1.659V22h-.782a.783.783,0,0,1-.782-.782V2.346a.783.783,0,0,1,.782-.782H48.99a.783.783,0,0,1,.782.782v.782H38.687a2.331,2.331,0,0,0-1.659.687Zm4.006-1.335V7.822H35.693V7.687a.777.777,0,0,1,.229-.553l2.212-2.212a.777.777,0,0,1,.553-.229h.134ZM52.9,24.351a.783.783,0,0,1-.782.782H36.475a.783.783,0,0,1-.782-.782V9.386H39.6a.782.782,0,0,0,.782-.782V4.693H52.118a.783.783,0,0,1,.782.782Z" transform="translate(-31)" fill="#b8b8b8"/>
    </g>
  </g>
  <g id="Grupo_12" data-name="Grupo 12" transform="translate(6.257 11.055)">
    <g id="Grupo_11" data-name="Grupo 11" transform="translate(0)">
      <path id="Trazado_19" data-name="Trazado 19" d="M164.3,212H151.782a.782.782,0,1,0,0,1.564H164.3a.782.782,0,1,0,0-1.564Z" transform="translate(-151 -212)" fill="#b8b8b8"/>
    </g>
  </g>
  <g id="Grupo_14" data-name="Grupo 14" transform="translate(6.257 14.183)">
    <g id="Grupo_13" data-name="Grupo 13" transform="translate(0)">
      <path id="Trazado_20" data-name="Trazado 20" d="M164.3,272H151.782a.782.782,0,1,0,0,1.564H164.3a.782.782,0,1,0,0-1.564Z" transform="translate(-151 -272)" fill="#b8b8b8"/>
    </g>
  </g>
  <g id="Grupo_16" data-name="Grupo 16" transform="translate(6.257 17.312)">
    <g id="Grupo_15" data-name="Grupo 15" transform="translate(0)">
      <path id="Trazado_21" data-name="Trazado 21" d="M164.3,332H151.782a.782.782,0,1,0,0,1.564H164.3a.782.782,0,1,0,0-1.564Z" transform="translate(-151 -332)" fill="#b8b8b8"/>
    </g>
  </g>
  <g id="Grupo_18" data-name="Grupo 18" transform="translate(6.257 20.441)">
    <g id="Grupo_17" data-name="Grupo 17" transform="translate(0)">
      <path id="Trazado_22" data-name="Trazado 22" d="M164.3,392H151.782a.782.782,0,0,0,0,1.564H164.3a.782.782,0,1,0,0-1.564Z" transform="translate(-151 -392)" fill="#b8b8b8"/>
    </g>
  </g>
</svg>
