<svg id="icon-menu-05a" xmlns="http://www.w3.org/2000/svg" width="23.469" height="23.448" viewBox="0 0 23.469 23.448">
  <g id="Grupo_4" data-name="Grupo 4" transform="translate(0 6.449)">
    <g id="Grupo_3" data-name="Grupo 3">
      <g id="Trazado_14" data-name="Trazado 14" transform="translate(0 -140.923)" fill="none" stroke-linecap="round" stroke-linejoin="round">
        <path d="M6.463,146.188a5.243,5.243,0,0,1,.4-2.018l-5.624-3.247a11.755,11.755,0,0,0,2.2,13.562,11.851,11.851,0,0,0,1.843,1.506l3.247-5.624A5.265,5.265,0,0,1,6.463,146.188Z" stroke="none"/>
        <path d="M 2.282450199127197 143.8338623046875 C 2.09461498260498 144.5947265625 1.999998092651367 145.3813171386719 1.999998092651367 146.1876525878906 C 1.999998092651367 148.7295532226562 2.967762470245361 151.1228179931641 4.728880882263184 152.9466094970703 L 6.028294563293457 150.6959381103516 C 5.019673347473145 149.4269256591797 4.463128089904785 147.8535614013672 4.463128089904785 146.1876525878906 C 4.463128089904785 145.8334045410156 4.488420486450195 145.4825439453125 4.538728713989258 145.1365051269531 L 2.282450199127197 143.8338623046875 M 1.240687847137451 140.9230041503906 L 6.864808082580566 144.1700592041016 C 6.606237888336182 144.7919006347656 6.463128089904785 145.4733734130859 6.463128089904785 146.1876525878906 C 6.463128089904785 147.8884735107422 7.272997856140137 149.4033660888672 8.527117729187012 150.3678436279297 L 5.280287742614746 155.9915466308594 C 4.62388801574707 155.5574493408203 4.006127834320068 155.0544281005859 3.436917781829834 154.4852142333984 C 1.220617771148682 152.2688293457031 -1.9073486328125e-06 149.3220520019531 -1.9073486328125e-06 146.1876525878906 C -1.9073486328125e-06 144.3290710449219 0.4292678833007812 142.5365447998047 1.240687847137451 140.9230041503906 Z" stroke="none" fill="#b8b8b8"/>
      </g>
    </g>
  </g>
  <g id="Grupo_6" data-name="Grupo 6" transform="translate(1.931 0)">
    <g id="Grupo_5" data-name="Grupo 5">
      <g id="Trazado_15" data-name="Trazado 15" transform="translate(-42.118 -0.224)" fill="none" stroke-linecap="round" stroke-linejoin="round">
        <path d="M43.624,3.64a11.85,11.85,0,0,0-1.506,1.843l5.624,3.247a5.273,5.273,0,0,1,3.493-2.019V.224A11.649,11.649,0,0,0,43.624,3.64Z" stroke="none"/>
        <path d="M 49.23432159423828 2.579863548278809 C 47.71673202514648 3.014988422393799 46.31781005859375 3.818004131317139 45.16297912597656 4.932440757751465 L 47.41387176513672 6.231976509094238 C 47.96702575683594 5.792715072631836 48.57920074462891 5.438512325286865 49.23432159423828 5.178718566894531 L 49.23432159423828 2.579863548278809 M 51.23432159423828 0.2240018844604492 L 51.23432159423828 6.711472034454346 C 49.81633377075195 6.897022247314453 48.57403182983398 7.648352146148682 47.74166107177734 8.730622291564941 L 42.11800384521484 5.483841896057129 C 42.55208206176758 4.827442169189453 43.05511093139648 4.209692001342773 43.62432098388672 3.640471935272217 C 45.67786407470703 1.587032318115234 48.35850143432617 0.3891124725341797 51.23432159423828 0.2240018844604492 Z" stroke="none" fill="#b8b8b8"/>
      </g>
    </g>
  </g>
  <g id="Grupo_8" data-name="Grupo 8" transform="translate(6.47 0)">
    <g id="Grupo_7" data-name="Grupo 7">
      <g id="Trazado_16" data-name="Trazado 16" transform="translate(-141.146 -0.224)" fill="none" stroke-linecap="round" stroke-linejoin="round">
        <path d="M154.708,3.64A11.649,11.649,0,0,0,147.1.224V6.711a5.271,5.271,0,1,1-2.705,10.1l-3.247,5.624A11.738,11.738,0,0,0,154.708,3.64Z" stroke="none"/>
        <path d="M 149.0981903076172 2.579864501953125 L 149.0981903076172 5.181570053100586 C 151.8033752441406 6.261348724365234 153.6819763183594 8.913393974304199 153.6819763183594 11.93799209594727 C 153.6819763183594 15.94742202758789 150.4200744628906 19.20933151245117 146.4106292724609 19.20933151245117 C 146.0563659667969 19.20933151245117 145.7055053710938 19.18404197692871 145.3594665527344 19.13373565673828 L 144.0568084716797 21.39002990722656 C 144.8176574707031 21.57785987854004 145.6042175292969 21.67246246337891 146.4106292724609 21.67246246337891 C 149.0107727050781 21.67246246337891 151.455322265625 20.6599006652832 153.2939758300781 18.82133102416992 C 155.1325531005859 16.98274230957031 156.1451110839844 14.53818130493164 156.1451110839844 11.93798160552979 C 156.1451110839844 9.337841987609863 155.1325531005859 6.893301010131836 153.2940063476562 5.054721832275391 C 152.1158142089844 3.876581192016602 150.6707458496094 3.030752182006836 149.0981903076172 2.579864501953125 M 147.0981903076172 0.2240009307861328 C 149.9740142822266 0.3891124725341797 152.6546478271484 1.587032318115234 154.7081909179688 3.640472412109375 C 156.9244842529297 5.856821060180664 158.1451110839844 8.803591728210449 158.1451110839844 11.93798160552979 C 158.1451110839844 15.07237148284912 156.9245300292969 18.01919174194336 154.7081909179688 20.23554229736328 C 152.4917907714844 22.45185089111328 149.5450134277344 23.67246246337891 146.4106292724609 23.67246246337891 C 144.5520324707031 23.67246246337891 142.7594604492188 23.24324226379395 141.1459655761719 22.43177223205566 L 144.3930206298828 16.80766105651855 C 145.0148620605469 17.06623077392578 145.6962890625 17.20933151245117 146.4106292724609 17.20933151245117 C 149.3172454833984 17.20933151245117 151.6819763183594 14.84461212158203 151.6819763183594 11.93799209594727 C 151.6819763183594 9.264361381530762 149.6811065673828 7.049430847167969 147.0981903076172 6.711471557617188 L 147.0981903076172 0.2240009307861328 Z" stroke="none" fill="#b8b8b8"/>
      </g>
    </g>
  </g>
</svg>
