<svg width="25" height="23" viewBox="0 0 25 23" fill="none" xmlns="http://www.w3.org/2000/svg">
<path d="M17.25 6.5V7.25H18H21.75C22.5358 7.25 23.25 7.96421 23.25 8.75V11.75H0.75V8.75C0.75 7.96421 1.46421 7.25 2.25 7.25H6H6.75V6.5V4.25C6.75 3.46421 7.46421 2.75 8.25 2.75H15.75C16.5358 2.75 17.25 3.46421 17.25 4.25V6.5ZM15 7.25H15.75V6.5V5V4.25H15H9H8.25V5V6.5V7.25H9H15ZM14.25 17.75C15.0786 17.75 15.75 17.0786 15.75 16.25V14.75H23.25V20.75C23.25 21.5358 22.5358 22.25 21.75 22.25H2.25C1.46421 22.25 0.75 21.5358 0.75 20.75V14.75H8.25V16.25C8.25 17.0786 8.92141 17.75 9.75 17.75H14.25Z" stroke="#B8B8B8" stroke-width="1.5"/>
<mask id="path-2-inside-1_710_2" fill="white">
<path d="M21.5511 0.391697L21.8483 0.0944091C21.9742 -0.0314697 22.1778 -0.0314697 22.3023 0.0944091L24.9056 2.69635C25.0315 2.82223 25.0315 3.02578 24.9056 3.15032L22.3023 5.7536C22.1764 5.87948 21.9729 5.87948 21.8483 5.7536L21.5511 5.45631C21.4238 5.32909 21.4265 5.12153 21.5564 4.99699L23.1701 3.45966H19.3214C19.1433 3.45966 19 3.31637 19 3.13827V2.70974C19 2.53164 19.1433 2.38835 19.3214 2.38835H23.1701L21.5564 0.851021C21.4252 0.726481 21.4225 0.518915 21.5511 0.391697Z"/>
</mask>
<path d="M21.5511 0.391697L21.8483 0.0944091C21.9742 -0.0314697 22.1778 -0.0314697 22.3023 0.0944091L24.9056 2.69635C25.0315 2.82223 25.0315 3.02578 24.9056 3.15032L22.3023 5.7536C22.1764 5.87948 21.9729 5.87948 21.8483 5.7536L21.5511 5.45631C21.4238 5.32909 21.4265 5.12153 21.5564 4.99699L23.1701 3.45966H19.3214C19.1433 3.45966 19 3.31637 19 3.13827V2.70974C19 2.53164 19.1433 2.38835 19.3214 2.38835H23.1701L21.5564 0.851021C21.4252 0.726481 21.4225 0.518915 21.5511 0.391697Z" fill="#B8B8B8"/>
<path d="M21.5511 0.391697L22.2545 1.10251L22.2582 1.0988L21.5511 0.391697ZM21.8483 0.0944091L21.1412 -0.612698L21.1412 -0.612698L21.8483 0.0944091ZM22.3023 0.0944091L21.5914 0.797736L21.5954 0.801698L22.3023 0.0944091ZM24.9056 2.69635L25.6127 1.98924L25.6125 1.98906L24.9056 2.69635ZM24.9056 3.15032L24.2023 2.43943L24.1985 2.44321L24.9056 3.15032ZM21.8483 5.7536L22.5592 5.05027L22.5554 5.04649L21.8483 5.7536ZM21.5511 5.45631L20.8439 6.16342L20.8439 6.16342L21.5511 5.45631ZM21.5564 4.99699L20.8666 4.27296L20.8643 4.27515L21.5564 4.99699ZM23.1701 3.45966L23.8598 4.18368L25.6695 2.45966H23.1701V3.45966ZM23.1701 2.38835V3.38835H25.6695L23.8598 1.66433L23.1701 2.38835ZM21.5564 0.851021L22.2462 0.126996L22.2448 0.125652L21.5564 0.851021ZM22.2582 1.0988L22.5554 0.801516L21.1412 -0.612698L20.8439 -0.31541L22.2582 1.0988ZM22.5554 0.801516C22.2929 1.06406 21.8603 1.06953 21.5914 0.797725L23.0132 -0.608906C22.4952 -1.13247 21.6555 -1.127 21.1412 -0.612698L22.5554 0.801516ZM21.5954 0.801698L24.1987 3.40364L25.6125 1.98906L23.0092 -0.61288L21.5954 0.801698ZM24.1985 3.40346C23.9359 3.14091 23.9305 2.70835 24.2023 2.43944L25.6089 3.8612C26.1325 3.3432 26.127 2.50354 25.6127 1.98924L24.1985 3.40346ZM24.1985 2.44321L21.5952 5.04649L23.0094 6.4607L25.6127 3.85742L24.1985 2.44321ZM21.5952 5.04649C21.8577 4.78395 22.2903 4.77848 22.5592 5.05028L21.1375 6.45691C21.6555 6.98047 22.4951 6.97501 23.0094 6.4607L21.5952 5.04649ZM22.5554 5.04649L22.2582 4.7492L20.8439 6.16342L21.1412 6.4607L22.5554 5.04649ZM22.2582 4.7492C22.5293 5.02038 22.5211 5.45745 22.2485 5.71882L20.8643 4.27515C20.3319 4.7856 20.3183 5.6378 20.8439 6.16342L22.2582 4.7492ZM22.2462 5.72101L23.8598 4.18368L22.4803 2.73563L20.8666 4.27296L22.2462 5.72101ZM23.1701 2.45966H19.3214V4.45966H23.1701V2.45966ZM19.3214 2.45966C19.6956 2.45966 20 2.76409 20 3.13827H18C18 3.86866 18.591 4.45966 19.3214 4.45966V2.45966ZM20 3.13827V2.70974H18V3.13827H20ZM20 2.70974C20 3.08392 19.6956 3.38835 19.3214 3.38835V1.38835C18.591 1.38835 18 1.97935 18 2.70974H20ZM19.3214 3.38835H23.1701V1.38835H19.3214V3.38835ZM23.8598 1.66433L22.2462 0.126997L20.8666 1.57504L22.4803 3.11237L23.8598 1.66433ZM22.2448 0.125652C22.5209 0.38767 22.5294 0.830458 22.2544 1.1025L20.8477 -0.319102C20.3156 0.207373 20.3295 1.06529 20.8681 1.57639L22.2448 0.125652Z" fill="#B8B8B8" mask="url(#path-2-inside-1_710_2)"/>
</svg>
