<svg width="23" height="27" viewBox="0 0 23 27" fill="none" xmlns="http://www.w3.org/2000/svg">
<g clip-path="url(#clip0_738_18)">
<path d="M2.22045 23.9309C-0.779304 20.8357 -0.723395 15.8444 2.29161 12.7605L13.0606 1.74507C15.3357 -0.582239 19.0339 -0.582445 21.3093 1.74507C23.5626 4.0499 23.5653 7.76866 21.3093 10.0762L11.9219 19.6691C10.3892 21.2368 7.88498 21.2149 6.37822 19.6178C4.9266 18.0792 4.97317 15.6404 6.45277 14.1269L13.8324 6.58852C14.1498 6.26437 14.6699 6.25882 14.994 6.57615L16.1677 7.72507C16.4919 8.04245 16.4974 8.56252 16.1801 8.88668L8.80118 16.4244C8.54798 16.6834 8.53237 17.1137 8.76792 17.3635C8.99237 17.6014 9.34523 17.6053 9.57333 17.3719L18.9607 7.77913C19.9676 6.74917 19.9676 5.07227 18.9601 4.04174C17.975 3.0341 16.3954 3.03359 15.4098 4.04174L4.6408 15.0571C2.85609 16.8827 2.82857 19.8378 4.57965 21.6446C6.3257 23.4462 9.14808 23.4485 10.8974 21.6593L19.7308 12.6236C20.0479 12.2992 20.568 12.2933 20.8924 12.6105L22.0669 13.7586C22.3913 14.0757 22.3972 14.5958 22.0801 14.9202L13.2466 23.9558C10.188 27.0843 5.24059 27.0473 2.22045 23.9309V23.9309Z" fill="#B8B8B8"/>
</g>
<defs>
<clipPath id="clip0_738_18">
<rect width="23" height="26.2857" fill="white"/>
</clipPath>
</defs>
</svg>
